#N canvas 543 100 639 592 10;
#X floatatom 47 535 5 0 0 0 - - -;
#X msg 356 480 connect localhost 49161;
#X obj 104 535 print backward;
#X msg 356 507 disconnect;
#X obj 270 189 metro 600;
#X obj 271 152 tgl 15 0 empty empty empty 17 7 0 10 -262144 -1 -1 1
1;
#X obj 397 204 bng 15 250 50 0 empty empty empty 17 7 0 10 -262144
-1 -1;
#X obj 299 220 + 1;
#X text 353 463 connect to Pilot;
#X obj 188 256 hradio 15 1 0 16 empty empty empty 0 -8 0 10 -262144
-1 -1 0;
#X obj 269 220 i 1;
#X obj 47 492 netsend -u;
#X msg 450 336 send 12G;
#X floatatom 323 146 5 0 0 0 - - -;
#X msg 381 158 600;
#X msg 396 177 300;
#X obj 443 33 metro 300;
#X obj 443 12 tgl 15 0 empty empty empty 17 7 0 10 -262144 -1 -1 1
1;
#X floatatom 392 101 5 0 0 0 - - -;
#X obj 392 122 + 400;
#X floatatom 450 157 5 0 0 0 - - -;
#X obj 369 58 metro 600;
#X obj 443 56 random 200;
#X msg 54 336 send 13C;
#X msg 248 336 send 17Ca2;
#X msg 97 187 send pha52;
#X msg 75 90 send rev11;
#X obj 392 81 random 8;
#X msg 178 336 send 03C \, send 13C \,;
#X msg 389 336 send 13C;
#X msg 510 336 send 17f \, send 23g;
#X msg 318 336 send 02C \, send 13C;
#X obj 188 281 select 0 1 2 3 4 5 6 7 8 9 10 11 12 13 14 15;
#X obj 188 236 mod 16;
#X msg 249 394 send 17Ga2;
#X msg 55 394 send 43c;
#X msg 179 394 send 03C \, send 43c \,;
#X msg 319 394 send 02C \, send 43c;
#X msg 390 394 send 43c;
#X msg 451 394 send 42G;
#X msg 511 394 send 17e \, send 23g;
#X msg 87 145 send del42;
#X msg 115 336 send 13G;
#X msg 116 394 send 13G;
#X connect 1 0 11 0;
#X connect 3 0 11 0;
#X connect 4 0 6 0;
#X connect 4 0 10 0;
#X connect 5 0 4 0;
#X connect 7 0 10 1;
#X connect 9 0 32 0;
#X connect 10 0 7 0;
#X connect 10 0 33 0;
#X connect 11 0 0 0;
#X connect 11 1 2 0;
#X connect 12 0 11 0;
#X connect 13 0 4 1;
#X connect 14 0 4 1;
#X connect 15 0 4 1;
#X connect 16 0 22 0;
#X connect 17 0 16 0;
#X connect 17 0 21 0;
#X connect 18 0 19 0;
#X connect 19 0 4 1;
#X connect 19 0 20 0;
#X connect 21 0 27 0;
#X connect 22 0 27 1;
#X connect 23 0 11 0;
#X connect 24 0 11 0;
#X connect 25 0 11 0;
#X connect 26 0 11 0;
#X connect 27 0 18 0;
#X connect 28 0 11 0;
#X connect 29 0 11 0;
#X connect 30 0 11 0;
#X connect 31 0 11 0;
#X connect 32 0 23 0;
#X connect 32 1 42 0;
#X connect 32 2 28 0;
#X connect 32 3 24 0;
#X connect 32 4 31 0;
#X connect 32 5 29 0;
#X connect 32 6 12 0;
#X connect 32 7 30 0;
#X connect 32 8 35 0;
#X connect 32 9 43 0;
#X connect 32 10 36 0;
#X connect 32 11 34 0;
#X connect 32 12 37 0;
#X connect 32 13 38 0;
#X connect 32 14 39 0;
#X connect 32 15 40 0;
#X connect 33 0 9 0;
#X connect 34 0 11 0;
#X connect 35 0 11 0;
#X connect 36 0 11 0;
#X connect 37 0 11 0;
#X connect 38 0 11 0;
#X connect 39 0 11 0;
#X connect 40 0 11 0;
#X connect 41 0 11 0;
#X connect 42 0 11 0;
#X connect 43 0 11 0;
